<svg id="Layer_1" data-name="Layer 1" xmlns="http://www.w3.org/2000/svg" viewBox="0 0 100 100"><defs><style>.cls-1{fill:#40312c;}.cls-2{fill:#87dd2c;}</style></defs><path class="cls-1" d="M19.63,0H80.38A19.62,19.62,0,0,1,100,19.63V80.38A19.62,19.62,0,0,1,80.38,100H19.62A19.62,19.62,0,0,1,0,80.38V19.63A19.63,19.63,0,0,1,19.63,0Z"/><path class="cls-2" d="M66.5,70.67l-7.76-9.46c4.68-1.72,8.84-4.38,8.84-8.66,0-4.69-6.41-7.07-12-5.51v.53c4.33-1.2,8.89.36,8.89,4.93,0,7-9.66,10-16.55,10.8V57.4a9.73,9.73,0,0,1,3.46-7.62l-.31-.34a10.65,10.65,0,0,0-3.15,4.92V47H44.82V75.62H47.9V63.82c1.85-.33,4.78-.85,7.81-1.66l7.35,9.14c3.24,4.09,4.26,4.32,8.42,4.32C70,75.1,68.81,73.48,66.5,70.67ZM53.94,47.62l.35.39.39-.15v-.54C54.43,47.41,54.18,47.51,53.94,47.62Z"/><circle class="cls-2" cx="66" cy="36.28" r="2.19"/><circle class="cls-2" cx="33.12" cy="65.5" r="2.19"/><path class="cls-2" d="M32.93,24.38,54.87,48.93V24.38h.51V53.45h-.51L31,26.71V53h-.52V26.33l-1.64-1.95Z"/><path class="cls-2" d="M79.71,34.54a31.84,31.84,0,0,0-.28-3.91c0-.32-.08-.64-.14-1h0l-.18-1a4.1,4.1,0,0,0-.1-.48l-.11-.48c-.08-.31-.14-.63-.24-.94l-.27-.94-.06-.24-.08-.23-.16-.46c-.2-.62-.45-1.23-.69-1.83a29.22,29.22,0,0,0-1.76-3.49,29.75,29.75,0,0,0-4.78-6.16,30.28,30.28,0,0,0-6.2-4.67,30.59,30.59,0,0,0-3.51-1.69c-.6-.22-1.21-.47-1.83-.65l-.46-.15-.46-.14-.94-.26A29.24,29.24,0,0,0,50.25,5H49.7a29.32,29.32,0,0,0-7.16.89l-.94.26-.46.14-.46.15c-.62.18-1.23.43-1.83.65a30.59,30.59,0,0,0-3.51,1.69,30.28,30.28,0,0,0-6.2,4.67,29.75,29.75,0,0,0-4.78,6.16A29.22,29.22,0,0,0,22.6,23.1c-.24.6-.49,1.21-.69,1.83l-.16.46-.08.23-.06.24-.27.94c-.1.31-.16.63-.24.94l-.11.48a4.1,4.1,0,0,0-.1.48c-.12.64-.25,1.28-.32,1.93a31.84,31.84,0,0,0-.28,3.91l0,15.46h0l0,15.46a31.84,31.84,0,0,0,.28,3.91c0,.32.08.64.14,1h0l.18,1a4.1,4.1,0,0,0,.1.48l.11.48c.08.31.14.63.24.94l.27.94.06.24.08.23.16.46c.2.62.45,1.23.69,1.83a29.22,29.22,0,0,0,1.76,3.49,29.75,29.75,0,0,0,4.78,6.16,30.28,30.28,0,0,0,6.2,4.67,30.59,30.59,0,0,0,3.51,1.69c.6.22,1.21.47,1.83.65l.46.15.46.14.94.26a29.24,29.24,0,0,0,7.21.89h.55a29.32,29.32,0,0,0,7.16-.89l.94-.26.46-.14.46-.15c.62-.18,1.23-.43,1.83-.65a30.59,30.59,0,0,0,3.51-1.69,30.28,30.28,0,0,0,6.2-4.67,29.75,29.75,0,0,0,4.78-6.16A29.22,29.22,0,0,0,77.4,76.9c.24-.6.49-1.21.69-1.83l.16-.46.08-.23.06-.24.27-.94c.1-.31.16-.63.24-.94l.11-.48a4.1,4.1,0,0,0,.1-.48c.12-.64.25-1.28.32-1.93a31.84,31.84,0,0,0,.28-3.91l0-15.46h0Zm-1,34.73s0,0,0,.08,0,.26,0,.39a2,2,0,0,1,0,.24,2.25,2.25,0,0,1-.06.36c0,.12,0,.23-.05.34l0,.24a1.85,1.85,0,0,1,0,.23.5.5,0,0,1,0,.12h0a.5.5,0,0,1,0,.12s0,0,0,0,0,.12,0,.18l-.06.26,0,.21c0,.17-.07.34-.11.51l0,.13c0,.1,0,.19-.08.28-.26,1-.56,1.91-.91,2.84-.08.23-.17.46-.26.69l0,.09a29.48,29.48,0,0,1-1.67,3.44,29.93,29.93,0,0,1-4.6,6.08,31.06,31.06,0,0,1-4.4,3.69l-.4.26-.81.52h0l-.41.24A29,29,0,0,1,61,92.61c-.59.24-1.18.49-1.79.69l-.46.16a4,4,0,0,1-.45.15l-.93.28c-.3.1-.62.16-.93.24s-.62.16-.94.22c-.63.12-1.26.25-1.9.33A29.3,29.3,0,0,1,50,95a29.3,29.3,0,0,1-3.63-.31c-.64-.08-1.27-.21-1.9-.33-.32-.06-.63-.15-.94-.22s-.63-.14-.93-.24l-.93-.28a4,4,0,0,1-.45-.15l-.46-.16c-.61-.2-1.2-.45-1.79-.69a29,29,0,0,1-3.42-1.75l-.41-.24h0l-.81-.52-.4-.26a31.06,31.06,0,0,1-4.4-3.69,29.47,29.47,0,0,1-6.25-9.46c-.06-.17-.13-.33-.2-.5a31.86,31.86,0,0,1-1-3.18c-.09-.3-.15-.61-.22-.92l-.11-.47c0-.08,0-.15,0-.23a.5.5,0,0,1,0-.12h0a.5.5,0,0,1,0-.12l-.09-.47a1.57,1.57,0,0,0,0-.23c0-.16-.05-.32-.07-.47a2,2,0,0,1,0-.24l-.06-.47a32.21,32.21,0,0,1-.24-3.81l0-15.46h0l0-15.46c0-.31,0-.62,0-.92a27.89,27.89,0,0,1,.22-2.89s0-.05,0-.08,0-.26.05-.39a2,2,0,0,1,0-.24,2.25,2.25,0,0,1,.06-.36c0-.12,0-.23.05-.34l.05-.24a1.85,1.85,0,0,1,0-.23.5.5,0,0,1,0-.12h0a.5.5,0,0,1,0-.12s0,0,0-.05,0-.12,0-.18l.06-.26,0-.2c0-.18.07-.35.11-.52l0-.13c0-.1.05-.19.08-.28.26-1,.56-1.91.91-2.84.08-.23.17-.46.26-.69l0-.09a29.48,29.48,0,0,1,1.67-3.44,29.93,29.93,0,0,1,4.6-6.08,31.06,31.06,0,0,1,4.4-3.69l.4-.26.81-.52h0l.41-.24A29,29,0,0,1,39,7.39c.59-.24,1.18-.49,1.79-.69l.46-.16a4,4,0,0,1,.45-.15l.93-.28c.3-.1.62-.16.93-.24s.62-.16.94-.22c.63-.12,1.26-.25,1.9-.33A29.3,29.3,0,0,1,50,5a29.3,29.3,0,0,1,3.63.31c.64.08,1.27.21,1.9.33.32.06.63.15.94.22s.63.14.93.24l.93.28a4,4,0,0,1,.45.15l.46.16c.61.2,1.2.45,1.79.69a29,29,0,0,1,3.42,1.75l.41.24h0l.81.52.4.26a31.06,31.06,0,0,1,4.4,3.69,29.47,29.47,0,0,1,6.25,9.46c.06.17.13.33.2.5A31.86,31.86,0,0,1,78,27c.09.3.15.62.22.93l.11.46c0,.08,0,.16,0,.23a.5.5,0,0,1,0,.12h0a.5.5,0,0,1,0,.12l.09.47a1.85,1.85,0,0,0,0,.23c0,.16,0,.32.07.47a2,2,0,0,1,0,.24l.06.47a32.21,32.21,0,0,1,.24,3.81l0,15.46h0l0,15.46c0,.31,0,.62,0,.92A27.89,27.89,0,0,1,78.67,69.27Z"/></svg>